<svg width="97" height="94" viewBox="0 0 97 94" fill="none" xmlns="http://www.w3.org/2000/svg">
<g clip-path="url(#clip0_0_64)">
<path d="M59.2273 45.1602L49.6631 54.1943L9.27516 92.3387C8.21485 93.3425 6.85467 93.8444 5.49448 93.8444C4.00577 93.8444 2.51706 93.2464 1.43533 92.061C-0.695988 89.7331 -0.417524 86.0916 2.0351 84.1054L49.6631 45.6941L54.9111 41.4653L59.2273 45.1602Z" fill="url(#paint0_linear_0_64)"/>
<path d="M49.2454 54.6535L39.8311 63.5382L38.9636 54.4079L44.1152 50.2539L49.2454 54.6535Z" fill="#3A81D6" fill-opacity="0.8"/>
<path d="M96.9054 31.1818C96.9054 48.4065 82.8965 62.3743 65.6318 62.3743C54.7503 62.3743 45.1647 56.832 39.5633 48.4172C36.2753 43.4837 34.3582 37.557 34.3582 31.1818C34.3582 13.9571 48.367 0 65.6318 0C73.4288 0 80.551 2.84053 86.0239 7.53916C92.6856 13.2629 96.9054 21.7311 96.9054 31.1818Z" fill="url(#paint1_linear_0_64)"/>
<path d="M65.6319 55.4759C79.0887 55.4759 89.9975 44.5991 89.9975 31.1819C89.9975 17.7646 79.0887 6.88782 65.6319 6.88782C52.1752 6.88782 41.2664 17.7646 41.2664 31.1819C41.2664 44.5991 52.1752 55.4759 65.6319 55.4759Z" fill="#E7E7E7"/>
<path opacity="0.06" d="M96.9056 31.1818C96.9056 48.4066 82.8967 62.3743 65.632 62.3743C54.7505 62.3743 45.1649 56.832 39.5635 48.4172C74.832 45.5553 84.1284 15.7618 86.0348 7.53918C92.6858 13.263 96.9056 21.7312 96.9056 31.1818Z" fill="#1A6FB5" fill-opacity="0.5"/>
<path d="M65.6317 31.2352C68.4592 31.2352 70.7512 28.95 70.7512 26.1308C70.7512 23.3116 68.4592 21.0264 65.6317 21.0264C62.8042 21.0264 60.5123 23.3116 60.5123 26.1308C60.5123 28.95 62.7935 31.2352 65.6317 31.2352ZM65.6317 33.7874C62.2152 33.7874 55.3928 35.496 55.3928 38.8918V40.1733C55.3928 40.8781 55.9712 41.4547 56.678 41.4547H74.6068C75.3137 41.4547 75.892 40.8781 75.892 40.1733V38.8918C75.8706 35.5067 69.0483 33.7874 65.6317 33.7874Z" fill="url(#paint2_linear_0_64)"/>
</g>
<defs>
<linearGradient id="paint0_linear_0_64" x1="5.97889" y1="87.9185" x2="56.3351" y2="42.0053" gradientUnits="userSpaceOnUse">
<stop stop-color="#67C3F3"/>
<stop offset="1" stop-color="#5A98F2"/>
</linearGradient>
<linearGradient id="paint1_linear_0_64" x1="52.6968" y1="2.20338" x2="76.2654" y2="55.3432" gradientUnits="userSpaceOnUse">
<stop stop-color="#67C3F3"/>
<stop offset="1" stop-color="#5A98F2"/>
</linearGradient>
<linearGradient id="paint2_linear_0_64" x1="58.2294" y1="29.6043" x2="76.7515" y2="38.6647" gradientUnits="userSpaceOnUse">
<stop stop-color="#B0F4FF"/>
<stop offset="0.071077" stop-color="#A6F1FF"/>
<stop offset="0.2937" stop-color="#8BE8FD"/>
<stop offset="0.5209" stop-color="#78E1FD"/>
<stop offset="0.7536" stop-color="#6DDDFC"/>
<stop offset="1" stop-color="#69DCFC"/>
</linearGradient>
<clipPath id="clip0_0_64">
<rect width="96.9054" height="93.8337" fill="white"/>
</clipPath>
</defs>
</svg>
